<?xml version="1.0" encoding="UTF-8"?><svg id="Layer_4" xmlns="http://www.w3.org/2000/svg" xmlns:xlink="http://www.w3.org/1999/xlink" viewBox="0 0 1080 471.67"><defs><style>.cls-1{fill:url(#linear-gradient);}.cls-1,.cls-2,.cls-3,.cls-4{stroke-width:0px;}.cls-2{fill:url(#linear-gradient-2);}.cls-3{fill:url(#linear-gradient-3);}.cls-4{fill:url(#linear-gradient-4);}</style><linearGradient id="linear-gradient" x1="-252.41" y1="412.72" x2="676.96" y2="197.85" gradientUnits="userSpaceOnUse"><stop offset="0" stop-color="#fff" stop-opacity="0"/><stop offset=".11" stop-color="#fff" stop-opacity=".02"/><stop offset=".23" stop-color="#fff" stop-opacity=".07"/><stop offset=".37" stop-color="#fff" stop-opacity=".16"/><stop offset=".5" stop-color="#fff" stop-opacity=".28"/><stop offset=".64" stop-color="#fff" stop-opacity=".44"/><stop offset=".78" stop-color="#fff" stop-opacity=".63"/><stop offset=".92" stop-color="#fff" stop-opacity=".86"/><stop offset="1" stop-color="#fff"/></linearGradient><linearGradient id="linear-gradient-2" x1="-249.21" y1="426.56" x2="680.15" y2="211.69" xlink:href="#linear-gradient"/><linearGradient id="linear-gradient-3" x1="-250.02" y1="423.03" x2="679.34" y2="208.16" xlink:href="#linear-gradient"/><linearGradient id="linear-gradient-4" x1="-229.93" y1="509.93" x2="699.43" y2="295.05" xlink:href="#linear-gradient"/></defs><polygon class="cls-1" points="330.05 307.1 349.13 305.64 377.59 237.27 358.75 239.43 330.05 307.1"/><polygon class="cls-2" points="436.54 299 458.14 297.35 485.03 224.94 463.77 227.38 436.54 299"/><polygon class="cls-3" points="574.38 244.26 595.01 242.22 604.25 213.37 583.78 215.7 574.38 244.26"/><path class="cls-4" d="M0,192.16v186.77l1080,92.73V0L0,192.16ZM380.56,311.47c-3.89,9.68-9.16,17.63-15.76,23.78-6.61,6.16-13.39,9.41-20.29,9.78l-42.84,2.26c-6.5.34-10.44-2.23-11.84-7.7-1.39-5.41-.05-12.73,3.99-21.95l35.92-82.09c3.73-8.52,8.57-15.54,14.56-21.12s12.13-8.78,18.48-9.64l41.73-5.63c6.71-.9,11.06.98,13.03,5.7,1.98,4.77,1.2,11.6-2.38,20.51l-34.6,86.07ZM494.49,303.35c-3.65,10.29-9.02,18.76-16.07,25.32-7.05,6.57-14.53,10.05-22.38,10.47l-48.64,2.57c-7.37.39-12.04-2.33-14.05-8.11-2-5.72-1.04-13.47,2.82-23.24l34.32-86.79c3.55-8.99,8.49-16.41,14.84-22.32,6.35-5.91,13.06-9.34,20.2-10.3l47-6.34c7.57-1.02,12.69.92,15.33,5.86,2.66,5,2.34,12.2-1,21.62l-32.38,91.25ZM636.84,247.01c-3.18,10.54-8.47,19.28-15.87,26.16-7.4,6.89-15.56,10.67-24.44,11.36l-36.34,2.81-14.72,44.72-42.65,2.31,53.28-153.66,76.23-10.2c8.6-1.15,14.64.85,18.1,6.05,3.5,5.26,3.77,12.88.75,22.89l-14.34,47.57ZM754.45,282.31c-2.87,11.64-8.34,21.25-16.39,28.74-8.05,7.5-17.23,11.52-27.45,12.07l-86.03,4.65,13.78-46.48,67.31-5.2,3.63-13.53-35.88-5.18c-7.74-1.17-13.36-4.81-16.88-10.88-3.48-6-3.75-13.89-.85-23.66l7.35-24.8c2.98-10.06,8.05-18.4,15.24-25.1,7.19-6.69,15.32-10.64,24.46-11.87l79.99-10.7-7.42,29.89-16.73,15.58-51.32,5.83-2.87,10.37,36.23,4.1c8.26.99,14.52,4.54,18.75,10.7,4.28,6.23,5.15,14.63,2.55,25.19l-7.46,30.26ZM814.4,317.51l-46.09,2.49,11.14-47.09,45.39-3.45-10.44,48.05ZM849.55,187.88l-23.74,66.19-40.41,3.36,5.99-63,11.19-46.71,57.21-7.65-10.24,47.82Z"/></svg>